<svg xmlns="http://www.w3.org/2000/svg" xmlns:xlink="http://www.w3.org/1999/xlink" width="26" height="24" viewBox="0 0 26 24"><defs><path id="whyha" d="M739 1559.98c0-.54.43-.98.96-.98h3.48c.43 0 .82.3.93.72l3.93 14.44H759l3.56-8.31H750.7a.97.97 0 0 1-.96-.98c0-.54.43-.98.96-.98h13.34c.32 0 .62.16.8.44a1 1 0 0 1 .08.93l-4.4 10.27a.96.96 0 0 1-.88.59h-12.07a.96.96 0 0 1-.92-.72l-3.93-14.44h-2.76a.97.97 0 0 1-.96-.98zm5.48 20.8a2.2 2.2 0 0 1 2.18-2.22c1.2 0 2.18 1 2.18 2.22a2.2 2.2 0 0 1-2.18 2.22c-1.2 0-2.18-1-2.18-2.22zm13.64.15a2.2 2.2 0 0 1 2.02-2.37 2.2 2.2 0 0 1 2.33 2.06 2.24 2.24 0 0 1-2.02 2.38h-.16a2.2 2.2 0 0 1-2.17-2.07z"/></defs><g><g transform="translate(-739 -1559)"><use fill="#ef5b70" xlink:href="#whyha"/></g></g></svg>